<svg xmlns="http://www.w3.org/2000/svg" xmlns:xlink="http://www.w3.org/1999/xlink" id="Layer_1" width="800" height="600" x="0" y="0" enable-background="new 0 0 800 600" version="1.1" viewBox="0 0 800 600" xml:space="preserve"><rect width="100%" height="100%" fill="#fff"/><rect width="200" height="300" x="200" y="100" fill="#0FF"/><line x1="0" x2="200" y1="183.5" y2="183.5" fill="none" stroke="red" stroke-miterlimit="10" stroke-width="3"/><line x1="400" x2="800" y1="183.5" y2="183.5" fill="none" stroke="red" stroke-miterlimit="10" stroke-width="3"/><text transform="matrix(1 0 0 1 586 213)"><tspan x="0" y="0" fill="red" font-family="'Arial'" font-size="24">“# 400”</tspan><tspan x="0" y="28.8" fill="red" font-family="'Arial'" font-size="24">“# 50%x”</tspan></text><text transform="matrix(1 0 0 1 19 213)"><tspan x="0" y="0" fill="red" font-family="'Arial'" font-size="24">200</tspan><tspan x="0" y="28.8" fill="red" font-family="'Arial'" font-size="24">“200”</tspan><tspan x="0" y="57.6" fill="red" font-family="'Arial'" font-size="24">“25%x”</tspan></text><line x1="259.5" x2="259.5" y1="100" y2="0" fill="none" stroke="#0F0" stroke-miterlimit="10" stroke-width="3"/><line x1="259.5" x2="259.5" y1="600" y2="400" fill="none" stroke="#0F0" stroke-miterlimit="10" stroke-width="3"/><text transform="matrix(1 0 0 1 272 500)"><tspan x="0" y="0" fill="#0F0" font-family="'Arial'" font-size="24">“# 200”</tspan><tspan x="0" y="28.8" fill="#0F0" font-family="'Arial'" font-size="24">“# 33%y”</tspan></text><text transform="matrix(1 0 0 1 272 28)"><tspan x="0" y="0" fill="#0F0" font-family="'Arial'" font-size="24">100</tspan><tspan x="0" y="28.8" fill="#0F0" font-family="'Arial'" font-size="24">“100”</tspan><tspan x="0" y="57.6" fill="#0F0" font-family="'Arial'" font-size="24">“16%y”</tspan></text><line x1="341.5" x2="341.5" y1="400" y2="100" fill="none" stroke="#00F" stroke-miterlimit="10" stroke-width="3"/><text transform="matrix(1 0 0 1 253.5 126)"><tspan x="0" y="0" fill="#00F" font-family="'Arial'" font-size="24">300</tspan><tspan x="0" y="28.8" fill="#00F" font-family="'Arial'" font-size="24">“300”</tspan><tspan x="0" y="57.6" fill="#00F" font-family="'Arial'" font-size="24">“50%y”</tspan></text><line x1="200" x2="400" y1="319.5" y2="319.5" fill="none" stroke="#000" stroke-miterlimit="10" stroke-width="3"/><text transform="matrix(1 0 0 1 221.5 250)"><tspan x="0" y="0" font-family="'Arial'" font-size="24">200</tspan><tspan x="0" y="28.8" font-family="'Arial'" font-size="24">“200”</tspan><tspan x="0" y="57.6" font-family="'Arial'" font-size="24">“25%x”</tspan></text><line x1="0" x2="800" y1="575.5" y2="575.5" fill="none" stroke="#000" stroke-miterlimit="10" stroke-width="3"/><text transform="matrix(1 0 0 1 21.5 506)"><tspan x="0" y="0" font-family="'Arial'" font-size="24">800</tspan><tspan x="0" y="28.8" font-family="'Arial'" font-size="24">“800”</tspan><tspan x="0" y="57.6" font-family="'Arial'" font-size="24">“100%x”</tspan></text><line x1="740.5" x2="740.5" y1="600" y2="0" fill="none" stroke="#00F" stroke-miterlimit="10" stroke-width="3"/><text transform="matrix(1 0 0 1 639.5 28)"><tspan x="0" y="0" fill="#00F" font-family="'Arial'" font-size="24">600</tspan><tspan x="0" y="28.8" fill="#00F" font-family="'Arial'" font-size="24">“600”</tspan><tspan x="0" y="57.6" fill="#00F" font-family="'Arial'" font-size="24">“100%y”</tspan></text></svg>